<?xml version="1.0" encoding="iso-8859-1"?>
<!-- Generator: Adobe Illustrator 19.0.0, SVG Export Plug-In . SVG Version: 6.00 Build 0)  -->
<svg version="1.1" id="Layer_1" xmlns="http://www.w3.org/2000/svg" xmlns:xlink="http://www.w3.org/1999/xlink" x="0px" y="0px"
	 viewBox="0 0 512 512" style="enable-background:new 0 0 512 512;" xml:space="preserve">
<path style="fill:#6FB0B6;" d="M137.557,409.408C67.601,407.65,12.8,351.492,12.8,281.562c0-67.311,52.224-122.65,118.281-127.633
	C142.925,94.605,194.782,51.162,256,51.162s113.075,43.452,124.919,102.767c66.057,4.983,118.281,60.322,118.281,127.633
	c0,69.939-54.801,126.097-124.757,127.846L137.557,409.408L137.557,409.408z"/>
<path style="fill:#FEDEA1;" d="M115.593,460.83L256,217.63l140.408,243.2L115.593,460.83L115.593,460.83z"/>
<g>
	<path style="fill:#573A32;" d="M243.2,307.23v64c0,7.074,5.726,12.8,12.8,12.8c7.074,0,12.8-5.726,12.8-12.8v-64
		c0-7.074-5.726-12.8-12.8-12.8C248.926,294.43,243.2,300.156,243.2,307.23z"/>
	<circle style="fill:#573A32;" cx="256" cy="409.596" r="12.8"/>
	<path style="fill:#573A32;" d="M512,281.562c0-70.818-52.54-129.587-120.695-139.366C374.98,81.702,320.162,38.362,256,38.362
		S137.028,81.711,120.695,142.195C52.54,151.974,0,210.743,0,281.562c0,71.834,54.11,131.166,123.682,139.657l-8.098,14.02
		c-4.574,7.919-4.574,17.681,0,25.6s13.022,12.8,22.17,12.8h236.484c9.148,0,17.596-4.881,22.17-12.8s4.574-17.681,0-25.6
		l-8.098-14.02C457.89,412.727,512,353.395,512,281.562z M137.762,448.03L256,243.23l118.238,204.8H137.762z M374.11,396.608
		L278.17,230.43c-4.574-7.919-13.022-12.8-22.17-12.8c-9.148,0-17.596,4.881-22.17,12.8l-95.94,166.178
		C75.622,395.055,25.6,344.196,25.6,281.562c0-63.625,51.575-115.2,115.2-115.2c0.435,0,0.845,0.119,1.28,0.128
		C148.463,108.907,196.719,63.962,256,63.962s107.537,44.945,113.92,102.528c0.435-0.009,0.845-0.128,1.28-0.128
		c63.625,0,115.2,51.575,115.2,115.2C486.4,344.196,436.378,395.055,374.11,396.608z"/>
</g>
<g>
</g>
<g>
</g>
<g>
</g>
<g>
</g>
<g>
</g>
<g>
</g>
<g>
</g>
<g>
</g>
<g>
</g>
<g>
</g>
<g>
</g>
<g>
</g>
<g>
</g>
<g>
</g>
<g>
</g>
</svg>
